<svg xmlns="http://www.w3.org/2000/svg" id="Capa_1" data-name="Capa 1" viewBox="0 0 57.094 29.649"><defs><style>.cls-1{fill:#464749}.cls-2{fill:#ed5b15}</style></defs><title>IGS Logo</title><g><path d="M27.351,8.111V3.33h-.686v-.8H29v.8h-.688V8.111H29v.8H26.665v-.8Z" class="cls-1"/><path d="M30.453,4.472v.534a2.706,2.706,0,0,1,1.529-.6,1.192,1.192,0,0,1,.712.2.926.926,0,0,1,.37.5,3.235,3.235,0,0,1,.086.864V8.135H33.9v.774H32.281v-2.9a.968.968,0,0,0-.152-.658.5.5,0,0,0-.37-.151,2.208,2.208,0,0,0-1.306.563V8.135h.768v.774H28.8V8.135h.778V5.249H28.8V4.472Z" class="cls-1"/><path d="M33.651,5.249V4.472h.577V3.79l.871-.8v1.48h.818v.777H35.1V7.4a2.177,2.177,0,0,0,.053.64c.041.078.136.122.288.122a1.258,1.258,0,0,0,.477-.093v.8a1.994,1.994,0,0,1-.669.116,1.084,1.084,0,0,1-.643-.176.768.768,0,0,1-.318-.439,5.018,5.018,0,0,1-.059-.918v-2.2Z" class="cls-1"/><path d="M40.665,6.914h-3.73a1.627,1.627,0,0,0,.487.995,1.434,1.434,0,0,0,1.03.379,1.689,1.689,0,0,0,1.442-.733l.771.337a2.333,2.333,0,0,1-.978.869,2.954,2.954,0,0,1-1.254.278,2.545,2.545,0,0,1-1.74-.634,2.172,2.172,0,0,1-.72-1.712,2.224,2.224,0,0,1,.7-1.685,2.3,2.3,0,0,1,1.616-.659A2.367,2.367,0,0,1,39.909,5,2.5,2.5,0,0,1,40.665,6.914Zm-.9-.632a1.564,1.564,0,0,0-.485-.849,1.339,1.339,0,0,0-.962-.38,1.285,1.285,0,0,0-.895.341,1.473,1.473,0,0,0-.455.887Z" class="cls-1"/><path d="M46.207,4.472v.777h-.8v3.3a5.182,5.182,0,0,1-.07.994,1.67,1.67,0,0,1-.331.66,2.031,2.031,0,0,1-.791.566A2.906,2.906,0,0,1,43.041,11a2.788,2.788,0,0,1-1.75-.592l.569-.634a1.977,1.977,0,0,0,1.254.451,1.7,1.7,0,0,0,.7-.144,1.184,1.184,0,0,0,.477-.353,1.085,1.085,0,0,0,.2-.391,2.966,2.966,0,0,0,.047-.624V8.307a2.167,2.167,0,0,1-1.609.731,2,2,0,0,1-1.552-.657,2.328,2.328,0,0,1-.6-1.626,2.291,2.291,0,0,1,.663-1.7,2.115,2.115,0,0,1,3.1.054V4.472ZM41.7,6.738a1.568,1.568,0,0,0,.391,1.1,1.305,1.305,0,0,0,1,.428,1.419,1.419,0,0,0,1.03-.428,1.514,1.514,0,0,0,.429-1.1,1.483,1.483,0,0,0-.429-1.1,1.42,1.42,0,0,0-1-.411,1.4,1.4,0,0,0-.995.41A1.466,1.466,0,0,0,41.7,6.738Z" class="cls-1"/><path d="M46.848,8.135V5.249h-.892V4.472h1.588v1a1.8,1.8,0,0,1,.41-.645,1.249,1.249,0,0,1,.551-.34A2.994,2.994,0,0,1,49.3,4.4h.229v.882h-.175a2.772,2.772,0,0,0-.991.133.885.885,0,0,0-.488.483,3.5,3.5,0,0,0-.157,1.256v.979h.97v.774H45.956V8.135Z" class="cls-1"/><path d="M54.241,8.135v.774H52.717V8.368a1.971,1.971,0,0,1-1.411.614,1.53,1.53,0,0,1-1.05-.391,1.359,1.359,0,0,1,.028-2.037,1.691,1.691,0,0,1,1.144-.406,2.181,2.181,0,0,1,1.2.373V6.081a1.661,1.661,0,0,0-.064-.523.667.667,0,0,0-.3-.328,1.133,1.133,0,0,0-.615-.151,1,1,0,0,0-.95.528l-.835-.223a1.99,1.99,0,0,1,1.915-1.036,2.54,2.54,0,0,1,.863.136,1.277,1.277,0,0,1,.545.349,1.121,1.121,0,0,1,.239.461,3.53,3.53,0,0,1,.064.788V8.135Zm-1.61-.875a1.83,1.83,0,0,0-1.139-.443.882.882,0,0,0-.6.215.679.679,0,0,0-.244.542.71.71,0,0,0,.216.523.779.779,0,0,0,.579.209,1.711,1.711,0,0,0,1.193-.529Z" class="cls-1"/><path d="M54.585,8.135V3.308h-.791V2.532h1.66v5.6h.678v.774H53.794V8.135Z" class="cls-1"/><path d="M31.123,14.551h2.316c0,.08,0,.155,0,.214a2.787,2.787,0,0,1-.877,2.154,3.305,3.305,0,0,1-2.324.806,3.211,3.211,0,0,1-2.574-.983,3.458,3.458,0,0,1-.846-2.327,3.333,3.333,0,0,1,.863-2.341,3.071,3.071,0,0,1,2.352-.928,3.235,3.235,0,0,1,2.233.811v-.71h.811v2.095h-.811A2.39,2.39,0,0,0,30.121,12a2.061,2.061,0,0,0-1.649.7,2.527,2.527,0,0,0-.6,1.7,2.433,2.433,0,0,0,.686,1.815,2.314,2.314,0,0,0,1.663.668,2.253,2.253,0,0,0,1.356-.426,1.587,1.587,0,0,0,.695-1.112H31.123Z" class="cls-1"/><path d="M34.237,16.851v-2.89h-.894V13.19h1.589v1a1.718,1.718,0,0,1,.406-.646,1.32,1.32,0,0,1,.554-.341,3.061,3.061,0,0,1,.793-.082h.23V14h-.173a2.737,2.737,0,0,0-.991.131.9.9,0,0,0-.486.488,3.448,3.448,0,0,0-.158,1.256v.978h.966v.774H33.343v-.774Z" class="cls-1"/><path d="M36.468,15.407a2.241,2.241,0,0,1,.676-1.685,2.413,2.413,0,0,1,3.3-.01,2.214,2.214,0,0,1,.686,1.694,2.228,2.228,0,0,1-.683,1.7,2.317,2.317,0,0,1-1.648.65,2.276,2.276,0,0,1-2.331-2.346Zm.923,0a1.472,1.472,0,0,0,.408,1.073,1.343,1.343,0,0,0,1,.42,1.326,1.326,0,0,0,1-.422,1.612,1.612,0,0,0-.005-2.149,1.352,1.352,0,0,0-1-.422,1.325,1.325,0,0,0-1.013.432A1.514,1.514,0,0,0,37.391,15.405Z" class="cls-1"/><path d="M46.113,16.851v.774H44.481v-.508a2.465,2.465,0,0,1-1.468.583,1.3,1.3,0,0,1-.735-.2.915.915,0,0,1-.387-.5,3.651,3.651,0,0,1-.1-1V13.961h-.629V13.19h1.5v2.7a4.716,4.716,0,0,0,.03.661.417.417,0,0,0,.159.282.5.5,0,0,0,.334.11,2.067,2.067,0,0,0,1.293-.577v-2.4h-.787V13.19h1.654v3.661Z" class="cls-1"/><path d="M46.518,18.839V13.961H45.77V13.19h1.62v.695a1.992,1.992,0,0,1,1.572-.766,2.054,2.054,0,0,1,1.549.642,2.318,2.318,0,0,1,.61,1.667,2.234,2.234,0,0,1-.666,1.7,2.129,2.129,0,0,1-3.065-.058v1.766h.861v.777H45.705v-.777Zm.858-3.369a1.724,1.724,0,0,0,.145.7,1.415,1.415,0,0,0,.486.564,1.346,1.346,0,0,0,.772.225,1.383,1.383,0,0,0,1.032-.417,1.592,1.592,0,0,0,.4-1.147,1.446,1.446,0,0,0-.422-1.109,1.379,1.379,0,0,0-.965-.4,1.406,1.406,0,0,0-1.017.431A1.557,1.557,0,0,0,47.377,15.47Z" class="cls-1"/><path d="M26.692,26.342V24.023h.8v.563a1.7,1.7,0,0,0,1.5,1.041,1.158,1.158,0,0,0,.8-.29.95.95,0,0,0,.323-.753.757.757,0,0,0-.265-.655,3.213,3.213,0,0,0-1-.4,7.653,7.653,0,0,1-1.266-.434,1.628,1.628,0,0,1-.659-.58,1.607,1.607,0,0,1-.245-.9,1.651,1.651,0,0,1,.531-1.282,1.946,1.946,0,0,1,1.343-.478,2.327,2.327,0,0,1,1.418.494v-.423h.781v1.932H29.96v-.446a1.538,1.538,0,0,0-1.35-.735,1.208,1.208,0,0,0-.8.236.752.752,0,0,0-.28.579.731.731,0,0,0,.145.45.827.827,0,0,0,.362.288,6.838,6.838,0,0,0,.864.256,6.771,6.771,0,0,1,1.221.408,1.693,1.693,0,0,1,.657.635,1.932,1.932,0,0,1,.271,1.024,1.745,1.745,0,0,1-.573,1.35,2,2,0,0,1-1.422.533,2.259,2.259,0,0,1-1.565-.631v.531Z" class="cls-1"/><path d="M31.14,24.12a2.282,2.282,0,0,1,2.33-2.345,2.307,2.307,0,0,1,1.644.649,2.227,2.227,0,0,1,.689,1.7,2.253,2.253,0,0,1-.686,1.7,2.316,2.316,0,0,1-1.648.649,2.274,2.274,0,0,1-2.33-2.348Zm.919,0a1.456,1.456,0,0,0,.41,1.073,1.343,1.343,0,0,0,1,.424,1.324,1.324,0,0,0,1-.425,1.484,1.484,0,0,0,.408-1.073,1.469,1.469,0,0,0-.416-1.078,1.348,1.348,0,0,0-1-.419,1.324,1.324,0,0,0-1.015.43A1.519,1.519,0,0,0,32.06,24.119Z" class="cls-1"/><path d="M36.573,25.566v-4.83h-.788v-.775H37.44v5.6h.681v.775H35.785v-.775Z" class="cls-1"/><path d="M42.962,25.566v.775H41.329v-.512a2.461,2.461,0,0,1-1.468.582,1.285,1.285,0,0,1-.735-.194.967.967,0,0,1-.39-.506,3.764,3.764,0,0,1-.093-1V22.672h-.629V21.9h1.5v2.7a5.232,5.232,0,0,0,.028.66.439.439,0,0,0,.162.282.53.53,0,0,0,.333.107,2.076,2.076,0,0,0,1.293-.574V22.672h-.784V21.9H42.2v3.666Z" class="cls-1"/><path d="M42.775,22.672V21.9h.578v-.683l.871-.8V21.9h.818v.772h-.818v2.158a2.114,2.114,0,0,0,.056.642c.037.082.132.12.287.12a1.2,1.2,0,0,0,.475-.095v.8a1.944,1.944,0,0,1-.669.118,1.121,1.121,0,0,1-.646-.174.777.777,0,0,1-.311-.445,4.588,4.588,0,0,1-.062-.918v-2.2Z" class="cls-1"/><path d="M45.753,25.566V22.672h-.688V21.9h1.557v3.666h.69v.775H45.065v-.775Zm-.125-5.172a.494.494,0,0,1,.15-.365.482.482,0,0,1,.377-.159.5.5,0,0,1,.368.15.486.486,0,0,1,.161.373.527.527,0,0,1-.9.367A.506.506,0,0,1,45.629,20.394Z" class="cls-1"/><path d="M47.294,24.12a2.254,2.254,0,0,1,.677-1.686,2.283,2.283,0,0,1,1.655-.658,2.318,2.318,0,0,1,1.644.649,2.444,2.444,0,0,1,0,3.394,2.312,2.312,0,0,1-1.645.649,2.277,2.277,0,0,1-2.332-2.348Zm.921,0a1.465,1.465,0,0,0,.406,1.073,1.353,1.353,0,0,0,1,.424,1.328,1.328,0,0,0,1-.425,1.508,1.508,0,0,0,.407-1.073,1.49,1.49,0,0,0-.412-1.078,1.356,1.356,0,0,0-1-.419,1.327,1.327,0,0,0-1.016.43A1.522,1.522,0,0,0,48.215,24.119Z" class="cls-1"/><path d="M53.651,21.9v.534a2.717,2.717,0,0,1,1.531-.6,1.205,1.205,0,0,1,.712.2.932.932,0,0,1,.367.5,3.371,3.371,0,0,1,.087.867v2.167h.746v.775H55.479V23.436a1,1,0,0,0-.153-.66.494.494,0,0,0-.368-.148,2.205,2.205,0,0,0-1.306.563v2.376h.764v.775H52v-.775h.779V22.672H52V21.9Z" class="cls-1"/><path d="M1.141,11.831V3.906H0V2.585H3.869V3.906H2.73v7.925H3.869v1.318H0V11.831Z" class="cls-2"/><path d="M10.693,8.054h3.838c.007.135.01.256.01.363a4.587,4.587,0,0,1-1.457,3.559,5.451,5.451,0,0,1-3.849,1.341,5.328,5.328,0,0,1-4.267-1.63,5.715,5.715,0,0,1-1.4-3.854A5.459,5.459,0,0,1,5,3.957a5.051,5.051,0,0,1,3.89-1.541,5.337,5.337,0,0,1,3.7,1.342V2.585H13.94V6.055H12.6A3.958,3.958,0,0,0,9.039,3.821,3.4,3.4,0,0,0,6.308,4.992a4.175,4.175,0,0,0-1,2.817,3.982,3.982,0,0,0,1.145,3,3.791,3.791,0,0,0,2.746,1.109,3.761,3.761,0,0,0,2.247-.7A2.659,2.659,0,0,0,12.6,9.377h-1.9Z" class="cls-2"/><path d="M14.881,13.149V9.312H16.2v.936a2.816,2.816,0,0,0,2.482,1.724A1.906,1.906,0,0,0,20,11.494a1.592,1.592,0,0,0,.54-1.254A1.263,1.263,0,0,0,20.1,9.158,5.238,5.238,0,0,0,18.438,8.5a12.888,12.888,0,0,1-2.1-.716,2.73,2.73,0,0,1-1.086-.967,2.682,2.682,0,0,1-.408-1.488,2.711,2.711,0,0,1,.885-2.12,3.206,3.206,0,0,1,2.221-.794,3.812,3.812,0,0,1,2.352.822V2.53h1.291V5.737H20.3V5a2.555,2.555,0,0,0-2.239-1.225,1.994,1.994,0,0,0-1.331.4,1.254,1.254,0,0,0-.226,1.7,1.4,1.4,0,0,0,.6.476,11.661,11.661,0,0,0,1.439.426,11.372,11.372,0,0,1,2.024.678,2.774,2.774,0,0,1,1.085,1.053,3.169,3.169,0,0,1,.453,1.7,2.916,2.916,0,0,1-.951,2.234,3.347,3.347,0,0,1-2.357.88,3.76,3.76,0,0,1-2.594-1.04v.872Z" class="cls-2"/><rect width="1.009" height="29.649" x="23.659" class="cls-2"/></g></svg>